<?xml version="1.0" encoding="utf-8"?>
<!-- Generator: Adobe Illustrator 24.2.0, SVG Export Plug-In . SVG Version: 6.00 Build 0)  -->
<svg version="1.1" id="Warstwa_1" xmlns="http://www.w3.org/2000/svg" xmlns:xlink="http://www.w3.org/1999/xlink" x="0px" y="0px"
	 width="422px" height="350px" viewBox="0 0 422 590" style="enable-background:new 0 0 422 590;" xml:space="preserve">
<style type="text/css">
	.st0{fill:#FF7D5F;}
	.st1{fill:#FFFFFF;}
	.st2{fill:#2B292C;}
	.st3{fill:#6DD6D3;}
	.st4{fill:#FFB760;}
	.st5{fill:#666666;}
	.st6{fill:#1F1E20;}
	.st7{fill:#FEFDFF;}
	.st8{fill:none;}
	.st9{fill:#F37C61;}
	.st10{fill:#73B0E5;}
	.st11{fill:none;stroke:#2B292C;stroke-width:1.8486;stroke-miterlimit:10;}
	.st12{fill:none;stroke:#73B0E5;stroke-width:24.0324;stroke-miterlimit:10;}
	.st13{clip-path:url(#SVGID_2_);}
	.st14{fill:#E5E3E7;}
	.st15{clip-path:url(#SVGID_4_);}
	.st16{fill:#393991;}
	.st17{fill:#E57A6A;}
	.st18{fill:#FFFFFF;stroke:#1F1E20;stroke-width:2;stroke-miterlimit:10;}
	.st19{fill:none;stroke:#1F1E20;stroke-width:2;stroke-miterlimit:10;}
	.st20{clip-path:url(#SVGID_6_);fill:#FFB760;}
	.st21{fill:none;stroke:#2B292C;stroke-width:2;stroke-linecap:round;stroke-linejoin:round;}
	.st22{fill:none;stroke:#2B292C;stroke-width:2;stroke-miterlimit:10;}
	.st23{clip-path:url(#SVGID_8_);}
	.st24{fill:none;stroke:#FFFFFF;stroke-width:2;stroke-linecap:round;stroke-linejoin:round;stroke-miterlimit:10;}
	.st25{fill:none;stroke:#2B292C;stroke-miterlimit:10;}
	.st26{clip-path:url(#Rectangle_102_20_);fill:none;stroke:#2B292C;stroke-miterlimit:10;}
	.st27{fill:none;stroke:#090909;stroke-width:0.3184;stroke-miterlimit:10;}
	.st28{fill:none;stroke:#090909;stroke-width:0.3184;stroke-miterlimit:10;stroke-dasharray:0.6178,1.2356;}
	.st29{fill:none;stroke:#2B292C;stroke-width:1.287;stroke-miterlimit:10;}
	.st30{opacity:0.48;fill:#FFFFFF;}
	.st31{fill:none;stroke:#FFFFFF;stroke-width:2;stroke-miterlimit:10;}
	.st32{fill:#FF7D5F;stroke:#2B292C;stroke-width:1.287;stroke-miterlimit:10;}
	.st33{clip-path:url(#Rectangle_102_21_);fill:none;stroke:#2B292C;stroke-miterlimit:10;}
	.st34{fill:#FF7D5F;stroke:#FFFFFF;stroke-width:2;stroke-miterlimit:10;}
	.st35{fill:#FF7D5F;stroke:#2B292C;stroke-width:2;stroke-miterlimit:10;}
	.st36{fill:none;stroke:#2B292C;stroke-width:2;stroke-linecap:round;stroke-linejoin:round;stroke-miterlimit:10;}
	.st37{clip-path:url(#Rectangle_102_22_);fill:none;stroke:#2B292C;stroke-miterlimit:10;}
	.st38{clip-path:url(#Rectangle_102_23_);fill:none;stroke:#2B292C;stroke-miterlimit:10;}
	.st39{clip-path:url(#SVGID_10_);}
	.st40{fill:none;stroke:#FFFFFF;stroke-miterlimit:10;}
	.st41{clip-path:url(#SVGID_12_);}
	.st42{fill-rule:evenodd;clip-rule:evenodd;fill:none;stroke:#2B292C;stroke-width:2;stroke-miterlimit:10;}
	.st43{fill:#73B0E5;stroke:#2B292C;stroke-width:2;stroke-miterlimit:10;}
	.st44{clip-path:url(#SVGID_14_);}
	.st45{clip-path:url(#SVGID_16_);}
	.st46{clip-path:url(#SVGID_18_);}
	.st47{clip-path:url(#SVGID_20_);}
	.st48{clip-path:url(#SVGID_22_);}
	.st49{clip-path:url(#SVGID_24_);}
	.st50{clip-path:url(#SVGID_26_);}
	.st51{clip-path:url(#SVGID_28_);}
</style>
<g id="Rectangle_102_15_">
	<rect x="0" y="0" class="st3" width="422" height="590"/>
</g>
<g id="XMLID_14_">
	<path class="st3" d="M305.5,526h-181c-11,0-20-9-20-20V78.5c0-11,9-20,20-20h181c11,0,20,9,20,20v427.6
		C325.4,517,316.4,526,305.5,526z"/>
</g>
<g id="XMLID_6_">
	<path class="st1" d="M305.5,58.5c11,0,20,9,20,20v427.6c0,11-9,20-20,20h-181c-11,0-20-9-20-20V78.5c0-11,9-20,20-20H305.5
		 M305.5,57.2h-181c-11.7,0-21.2,9.5-21.2,21.2v427.6c0,11.7,9.5,21.2,21.2,21.2h181c11.7,0,21.2-9.5,21.2-21.2V78.5
		C326.7,66.7,317.2,57.2,305.5,57.2L305.5,57.2z"/>
</g>
<g>
	<g>
		<g>
			<g>
				<path class="st1" d="M303.7,78.8h-19.1c-0.6,0-1-0.4-1-1s0.4-1,1-1h19.1c0.6,0,1,0.4,1,1S304.2,78.8,303.7,78.8z"/>
			</g>
			<g>
				<path class="st1" d="M303.7,85.6h-19.1c-0.6,0-1-0.4-1-1s0.4-1,1-1h19.1c0.6,0,1,0.4,1,1S304.2,85.6,303.7,85.6z"/>
			</g>
		</g>
		<g>
			<path class="st1" d="M133.5,88.4c-0.2,0-0.4-0.1-0.6-0.2l-7.2-5c-0.3-0.2-0.4-0.5-0.4-0.8s0.2-0.6,0.4-0.8l7.2-5
				c0.5-0.3,1.1-0.2,1.4,0.2c0.3,0.5,0.2,1.1-0.2,1.4l-6,4.2l6,4.2c0.5,0.3,0.6,0.9,0.2,1.4C134.1,88.3,133.8,88.4,133.5,88.4z"/>
		</g>
	</g>
	<g id="XMLID_2_">
		<path class="st1" d="M305.5,58.5c11,0,20,9,20,20v427.6c0,11-9,20-20,20h-181c-11,0-20-9-20-20V78.5c0-11,9-20,20-20H305.5
			 M305.5,56.5h-181c-12.1,0-22,9.8-22,22v427.6c0,12.1,9.8,22,22,22h181c12.1,0,22-9.8,22-22V78.5
			C327.4,66.4,317.6,56.5,305.5,56.5L305.5,56.5z"/>
	</g>
</g>
<g>
	<g>
		<g>
			<rect x="363.2" y="149.1" class="st2" width="1" height="10.8"/>
		</g>
		<g>
			<rect x="358.3" y="154" class="st2" width="10.8" height="1"/>
		</g>
	</g>
	<g>
		<g>
			<rect x="21.8" y="448.6" class="st2" width="1" height="10.8"/>
		</g>
		<g>
			<rect x="16.9" y="453.5" class="st2" width="10.8" height="1"/>
		</g>
	</g>
	<g>
		<path class="st2" d="M380.3,208.5c-3.2,0-5.7-2.6-5.7-5.7s2.6-5.7,5.7-5.7s5.7,2.6,5.7,5.7S383.4,208.5,380.3,208.5z M380.3,198.1
			c-2.6,0-4.7,2.1-4.7,4.7s2.1,4.7,4.7,4.7s4.7-2.1,4.7-4.7S382.9,198.1,380.3,198.1z"/>
	</g>
	<g>
		<path class="st2" d="M22.3,402.1c-3.2,0-5.7-2.6-5.7-5.7s2.6-5.7,5.7-5.7c3.2,0,5.7,2.6,5.7,5.7S25.4,402.1,22.3,402.1z
			 M22.3,391.6c-2.6,0-4.7,2.1-4.7,4.7s2.1,4.7,4.7,4.7s4.7-2.1,4.7-4.7S24.9,391.6,22.3,391.6z"/>
	</g>
	<g>
		<path class="st2" d="M358.1,255.5c-1.8,0-3.3-1.5-3.3-3.3s1.5-3.3,3.3-3.3s3.3,1.5,3.3,3.3S359.9,255.5,358.1,255.5z M358.1,249.9
			c-1.3,0-2.3,1-2.3,2.3s1,2.3,2.3,2.3s2.3-1,2.3-2.3S359.3,249.9,358.1,249.9z"/>
	</g>
	<g>
		<path class="st2" d="M59.4,510.4c-1.8,0-3.3-1.5-3.3-3.3s1.5-3.3,3.3-3.3c1.8,0,3.3,1.5,3.3,3.3S61.2,510.4,59.4,510.4z
			 M59.4,504.7c-1.3,0-2.3,1-2.3,2.3s1,2.3,2.3,2.3s2.3-1,2.3-2.3S60.6,504.7,59.4,504.7z"/>
	</g>
	<g>
		<path class="st2" d="M53.7,416.9c-1.8,0-3.3-1.5-3.3-3.3s1.5-3.3,3.3-3.3s3.3,1.5,3.3,3.3S55.6,416.9,53.7,416.9z M53.7,411.3
			c-1.3,0-2.3,1-2.3,2.3s1,2.3,2.3,2.3s2.3-1,2.3-2.3S55,411.3,53.7,411.3z"/>
	</g>
	<g>
		<defs>
			<rect id="SVGID_23_" x="0" y="0" width="422" height="590"/>
		</defs>
		<clipPath id="SVGID_2_">
			<use xlink:href="#SVGID_23_"  style="overflow:visible;"/>
		</clipPath>
		<g class="st13">
			<path class="st2" d="M478.3,400.8c-35.7-23.9-67.1-53.2-93.2-87.2c-5.3-6.9-10.7-14.4-12.9-23.3c-2.4-9.7,0.1-19.6,6.4-25
				c1.7-1.5,3.8-2.7,5.7-3.9c3.4-2,6.6-3.9,8.3-7.2c2.9-5.5,0.2-12.1-3.6-16c-3.7-3.8-8.6-6.2-13.4-8.5c-0.6-0.3-1.2-0.6-1.8-0.9
				c-7.4-3.6-16.7-8.9-22.7-17.1c-5.1-7.1-8.1-18.3-3.2-27.3c6.1-11.2,20.6-13.9,32.3-16c10.5-1.9,21-4.4,31.3-7.3
				c5.7-1.6,11.6-3.4,16.6-6.8c5.5-3.7,9.1-8.8,9.8-14.1l1,0.1c-0.8,5.6-4.5,11-10.3,14.8c-5.1,3.4-11.2,5.3-16.9,6.9
				c-10.3,2.9-20.9,5.3-31.4,7.3c-11.4,2.1-25.7,4.7-31.6,15.5c-4.7,8.6-1.8,19.4,3.1,26.2c5.8,8,15,13.2,22.3,16.8
				c0.6,0.3,1.2,0.6,1.8,0.9c4.9,2.4,9.9,4.8,13.7,8.7c4,4.2,6.9,11.3,3.7,17.2c-1.9,3.5-5.3,5.6-8.7,7.6c-1.9,1.1-3.9,2.3-5.6,3.8
				c-6,5.2-8.4,14.6-6,24c2.2,8.6,7.5,16.1,12.7,22.9c26.1,33.9,57.4,63.2,93,87L478.3,400.8z"/>
		</g>
		<g class="st13">
			<path class="st2" d="M60.2,35.5c-3.4,0-6.7-0.5-9.7-1.3c-5.5-1.5-10.7-4-15.7-6.4c-3.4-1.6-6.9-3.3-10.4-4.7
				c-16-6.1-35.1-6.4-53.7-0.8l-0.3-1c18.8-5.6,38.2-5.3,54.4,0.9c3.6,1.4,7.1,3.1,10.5,4.7c5,2.4,10.1,4.9,15.5,6.3
				c8.2,2.3,19.3,2.1,25.9-5c3.1-3.4,4.8-7.9,6.4-12.3c0.3-0.8,0.6-1.6,0.9-2.4c6.1-16.1,16.6-30.2,30.2-40.7l0.6,0.8
				C101.3-16,91-2.1,84.9,13.9c-0.3,0.8-0.6,1.6-0.9,2.4c-1.6,4.5-3.3,9.1-6.6,12.6C72.9,33.8,66.5,35.5,60.2,35.5z"/>
		</g>
		<g class="st13">
			<path class="st2" d="M102.8,616.4l-1-0.2c4.2-25.8-13.5-50.1-32.7-62.8c-1.9-1.2-3.9-2.5-5.8-3.6c-9.7-6-19.8-12.2-23-22.9
				c-2.3-7.7-0.6-16.8,5.1-27.8c1.1-2,2.2-4.1,3.4-6.1c3.5-6.2,7.1-12.6,8.6-19.6c2.9-13.2-2.3-27.6-13-35.8c-2.8-2.2-6.1-4-9.2-5.7
				c-2.9-1.6-5.9-3.3-8.6-5.3c-10.9-8.1-16.8-20.8-21.9-33.1c-6.3-15.2-12-30.8-17-46.4l1-0.3c5,15.6,10.7,31.2,17,46.3
				c5.1,12.2,10.9,24.8,21.6,32.7c2.7,2,5.6,3.6,8.5,5.2c3.1,1.8,6.4,3.6,9.3,5.8c11,8.5,16.3,23.3,13.4,36.8
				c-1.6,7.1-5.2,13.6-8.7,19.9c-1.1,2-2.3,4-3.3,6.1c-5.6,10.7-7.3,19.6-5.1,27c3.1,10.4,13,16.5,22.6,22.4
				c1.9,1.2,3.9,2.4,5.8,3.7C89.1,565.5,107,590.1,102.8,616.4z"/>
		</g>
	</g>
</g>
<g>
	<polygon class="st1" points="207.5,373.9 104.5,373.9 104.5,371.9 206.7,371.9 218.7,359.8 220.2,361.2 	"/>
</g>
<g>
	<polygon class="st1" points="236.6,344.8 235.1,343.4 242.5,336.1 242.5,127.4 213.8,127.4 105,187.5 104,185.8 213.3,125.4 
		244.5,125.4 244.5,336.9 	"/>
</g>
<g>
	<path class="st1" d="M326.9,358h-42.1l-21.8-21.8V125.4h63.5L326.9,358z M285.6,356h39.3l-0.5-228.6h-59.5v207.9L285.6,356z"/>
</g>
<g>
	<polygon class="st1" points="241.4,526 239.4,526 239.4,452.1 230.7,443.5 232.1,442.1 241.4,451.3 	"/>
</g>
<g>
	<polygon class="st1" points="215.8,428.6 206,418.8 104.5,418.8 104.5,416.8 206.9,416.8 217.2,427.2 	"/>
</g>
<g>
	<polygon class="st1" points="264.9,527.7 262.9,527.7 262.9,451.1 284.5,429.6 325.9,429.6 325.9,431.6 285.3,431.6 264.9,451.9 	
		"/>
</g>
<g>
	
		<rect x="234.3" y="338.8" transform="matrix(0.7072 -0.7071 0.7071 0.7072 -174.4976 267.1467)" class="st1" width="2" height="10.9"/>
</g>
<g>
	
		<rect x="217.8" y="354.6" transform="matrix(0.7071 -0.7071 0.7071 0.7071 -190.4747 260.1544)" class="st1" width="2" height="10.9"/>
</g>
<g>
	
		<rect x="210.7" y="427.1" transform="matrix(0.7071 -0.7071 0.7071 0.7071 -239.1837 278.6844)" class="st1" width="12.2" height="2"/>
</g>
<g>
	
		<rect x="225.3" y="441.8" transform="matrix(0.7071 -0.7071 0.7071 0.7071 -245.3054 293.3213)" class="st1" width="12.2" height="2"/>
</g>
<g>
	<polygon class="st2" points="250,527.7 248,527.7 248,373.1 177.8,303 177.8,280.9 179.8,280.9 179.8,302.1 250,372.3 	"/>
</g>
<g>
	<circle class="st2" cx="178.8" cy="235.3" r="46.2"/>
</g>
<g>
	<polygon class="st2" points="258.2,526 256.2,526 256.2,442.4 283,415.6 325.9,415.6 325.9,417.6 283.8,417.6 258.2,443.2 	"/>
</g>
<g>
	<polygon class="st2" points="325.9,376.1 282.3,376.1 253.2,347 253.2,114.1 325.9,114.1 325.9,116.1 255.2,116.1 255.2,346.2 
		283.1,374.1 325.9,374.1 	"/>
</g>
<g>
	<polygon class="st2" points="134.2,527.2 132.8,525.8 230.4,428.2 230.4,396.2 104.5,396.2 104.5,394.2 232.4,394.2 232.4,429 	"/>
</g>
<g>
	<path class="st3" d="M178.8,203c-14.6,0-26.4,11.8-26.4,26.4c0,14.6,26.4,38.1,26.4,38.1s26.4-23.6,26.4-38.1
		C205.2,214.8,193.4,203,178.8,203z M178.8,241.4c-5.6,0-10.2-4.6-10.2-10.2s4.6-10.2,10.2-10.2s10.2,4.6,10.2,10.2
		S184.4,241.4,178.8,241.4z"/>
</g>
<g>
	<defs>
		<polygon id="SVGID_25_" points="325.4,126.4 263.9,126.4 263.9,335.8 285.2,357 325.9,357 		"/>
	</defs>
	<clipPath id="SVGID_4_">
		<use xlink:href="#SVGID_25_"  style="overflow:visible;"/>
	</clipPath>
	<g class="st15">
		<g>
			
				<rect x="254.1" y="251.7" transform="matrix(0.7071 -0.7071 0.7071 0.7071 -42.5269 401.664)" class="st1" width="418.9" height="1"/>
		</g>
		<g>
			
				<rect x="231" y="251.7" transform="matrix(0.7071 -0.7071 0.7071 0.7071 -49.2922 385.3311)" class="st1" width="418.9" height="1"/>
		</g>
		<g>
			
				<rect x="196.4" y="251.7" transform="matrix(0.7071 -0.7071 0.7071 0.7071 -59.4403 360.8313)" class="st1" width="418.9" height="1"/>
		</g>
		<g>
			
				<rect x="80.9" y="251.7" transform="matrix(0.7071 -0.7071 0.7071 0.7071 -93.2672 279.166)" class="st1" width="418.9" height="1"/>
		</g>
		<g>
			
				<rect x="242.6" y="251.7" transform="matrix(0.7071 -0.7071 0.7071 0.7071 -45.9095 393.4977)" class="st1" width="418.9" height="1"/>
		</g>
		<g>
			
				<rect x="173.3" y="251.7" transform="matrix(0.7071 -0.7071 0.7071 0.7071 -66.2058 344.4981)" class="st1" width="418.9" height="1"/>
		</g>
		<g>
			
				<rect x="127.1" y="251.7" transform="matrix(0.7071 -0.7071 0.7071 0.7071 -79.7365 311.8321)" class="st1" width="418.9" height="1"/>
		</g>
		<g>
			
				<rect x="11.6" y="251.7" transform="matrix(0.7071 -0.7071 0.7071 0.7071 -113.5635 230.1664)" class="st1" width="418.9" height="1"/>
		</g>
		<g>
			
				<rect x="219.5" y="251.7" transform="matrix(0.7071 -0.7071 0.7071 0.7071 -52.6749 377.1645)" class="st1" width="418.9" height="1"/>
		</g>
		<g>
			
				<rect x="104" y="251.7" transform="matrix(0.7071 -0.7071 0.7071 0.7071 -86.5019 295.4989)" class="st1" width="418.9" height="1"/>
		</g>
		<g>
			
				<rect x="57.8" y="251.7" transform="matrix(0.7071 -0.7071 0.7071 0.7071 -100.0327 262.8328)" class="st1" width="418.9" height="1"/>
		</g>
		<g>
			
				<rect x="-34.6" y="251.7" transform="matrix(0.7071 -0.7071 0.7071 0.7071 -127.0942 197.5004)" class="st1" width="418.9" height="1"/>
		</g>
		<g>
			
				<rect x="150.2" y="251.7" transform="matrix(0.7071 -0.7071 0.7071 0.7071 -72.9711 328.1653)" class="st1" width="418.9" height="1"/>
		</g>
		<g>
			
				<rect x="34.7" y="251.7" transform="matrix(0.7071 -0.7071 0.7071 0.7071 -106.7981 246.4996)" class="st1" width="418.9" height="1"/>
		</g>
		<g>
			
				<rect x="-11.5" y="251.7" transform="matrix(0.7071 -0.7071 0.7071 0.7071 -120.329 213.8332)" class="st1" width="418.9" height="1"/>
		</g>
		<g>
			
				<rect x="-57.7" y="251.7" transform="matrix(0.7071 -0.7071 0.7071 0.7071 -133.8597 181.1672)" class="st1" width="418.9" height="1"/>
		</g>
		<g>
			
				<rect x="207.9" y="251.7" transform="matrix(0.7071 -0.7071 0.7071 0.7071 -56.0576 368.9979)" class="st1" width="418.9" height="1"/>
		</g>
		<g>
			
				<rect x="161.7" y="251.7" transform="matrix(0.7071 -0.7071 0.7071 0.7071 -69.5883 336.3319)" class="st1" width="418.9" height="1"/>
		</g>
		<g>
			
				<rect x="115.6" y="251.7" transform="matrix(0.7071 -0.7071 0.7071 0.7071 -83.1192 303.6655)" class="st1" width="418.9" height="1"/>
		</g>
		<g>
			
				<rect x="0.1" y="251.7" transform="matrix(0.7071 -0.7071 0.7071 0.7071 -116.9461 222.0002)" class="st1" width="418.9" height="1"/>
		</g>
		<g>
			
				<rect x="184.8" y="251.7" transform="matrix(0.7071 -0.7071 0.7071 0.7071 -62.8231 352.6647)" class="st1" width="418.9" height="1"/>
		</g>
		<g>
			
				<rect x="92.5" y="251.7" transform="matrix(0.7071 -0.7071 0.7071 0.7071 -89.8847 287.3323)" class="st1" width="418.9" height="1"/>
		</g>
		<g>
			
				<rect x="46.3" y="251.7" transform="matrix(0.7071 -0.7071 0.7071 0.7071 -103.4154 254.6662)" class="st1" width="418.9" height="1"/>
		</g>
		<g>
			
				<rect x="-69.2" y="251.7" transform="matrix(0.7071 -0.7071 0.7071 0.7071 -137.2424 173.0006)" class="st1" width="418.9" height="1"/>
		</g>
		<g>
			
				<rect x="138.6" y="251.7" transform="matrix(0.7071 -0.7071 0.7071 0.7071 -76.3538 319.9987)" class="st1" width="418.9" height="1"/>
		</g>
		<g>
			
				<rect x="23.2" y="251.7" transform="matrix(0.7071 -0.7071 0.7071 0.7071 -110.1808 238.333)" class="st1" width="418.9" height="1"/>
		</g>
		<g>
			
				<rect x="-23" y="251.7" transform="matrix(0.7071 -0.7071 0.7071 0.7071 -123.7115 205.667)" class="st1" width="418.9" height="1"/>
		</g>
		<g>
			
				<rect x="-92.3" y="251.7" transform="matrix(0.7071 -0.7071 0.7071 0.7071 -144.0078 156.6674)" class="st1" width="418.9" height="1"/>
		</g>
		<g>
			
				<rect x="69.4" y="251.7" transform="matrix(0.7071 -0.7071 0.7071 0.7071 -96.6501 270.9991)" class="st1" width="418.9" height="1"/>
		</g>
		<g>
			
				<rect x="-46.1" y="251.7" transform="matrix(0.7071 -0.7071 0.7071 0.7071 -130.477 189.3338)" class="st1" width="418.9" height="1"/>
		</g>
		<g>
			
				<rect x="-80.8" y="251.7" transform="matrix(0.7071 -0.7071 0.7071 0.7071 -140.6251 164.834)" class="st1" width="418.9" height="1"/>
		</g>
		<g>
			
				<rect x="-103.9" y="251.7" transform="matrix(0.7071 -0.7071 0.7071 0.7071 -147.3904 148.5011)" class="st1" width="418.9" height="1"/>
		</g>
	</g>
</g>
<g>
	<defs>
		<path id="SVGID_27_" d="M284.9,430.6l-20.9,20.9v76.1h41.5c0,0,19.1,0,20.5-20.3v-76.8H284.9z"/>
	</defs>
	<clipPath id="SVGID_6_">
		<use xlink:href="#SVGID_27_"  style="overflow:visible;"/>
	</clipPath>
	<g style="clip-path:url(#SVGID_6_);">
		<g>
			
				<rect x="332" y="473.2" transform="matrix(0.7071 -0.7071 0.7071 0.7071 -176.3496 521.5786)" class="st1" width="418.9" height="1"/>
		</g>
		<g>
			
				<rect x="308.9" y="473.2" transform="matrix(0.7071 -0.7071 0.7071 0.7071 -183.1149 505.2457)" class="st1" width="418.9" height="1"/>
		</g>
		<g>
			
				<rect x="274.2" y="473.2" transform="matrix(0.7071 -0.7071 0.7071 0.7071 -193.2631 480.7459)" class="st1" width="418.9" height="1"/>
		</g>
		<g>
			
				<rect x="158.7" y="473.2" transform="matrix(0.7071 -0.7071 0.7071 0.7071 -227.0901 399.0803)" class="st1" width="418.9" height="1"/>
		</g>
		<g>
			
				<rect x="320.4" y="473.2" transform="matrix(0.7071 -0.7071 0.7071 0.7071 -179.7323 513.412)" class="st1" width="418.9" height="1"/>
		</g>
		<g>
			
				<rect x="251.1" y="473.2" transform="matrix(0.7071 -0.7071 0.7071 0.7071 -200.0285 464.4127)" class="st1" width="418.9" height="1"/>
		</g>
		<g>
			
				<rect x="204.9" y="473.2" transform="matrix(0.7071 -0.7071 0.7071 0.7071 -213.5592 431.7467)" class="st1" width="418.9" height="1"/>
		</g>
		<g>
			
				<rect x="89.4" y="473.2" transform="matrix(0.7071 -0.7071 0.7071 0.7071 -247.3862 350.081)" class="st1" width="418.9" height="1"/>
		</g>
		<g>
			
				<rect x="297.3" y="473.2" transform="matrix(0.7071 -0.7071 0.7071 0.7071 -186.4976 497.0791)" class="st1" width="418.9" height="1"/>
		</g>
		<g>
			
				<rect x="181.8" y="473.2" transform="matrix(0.7071 -0.7071 0.7071 0.7071 -220.3246 415.4135)" class="st1" width="418.9" height="1"/>
		</g>
		<g>
			
				<rect x="135.6" y="473.2" transform="matrix(0.7071 -0.7071 0.7071 0.7071 -233.8554 382.7474)" class="st1" width="418.9" height="1"/>
		</g>
		<g>
			
				<rect x="43.2" y="473.2" transform="matrix(0.7071 -0.7071 0.7071 0.7071 -260.917 317.415)" class="st1" width="418.9" height="1"/>
		</g>
		<g>
			
				<rect x="228" y="473.2" transform="matrix(0.7071 -0.7071 0.7071 0.7071 -206.7938 448.0799)" class="st1" width="418.9" height="1"/>
		</g>
		<g>
			
				<rect x="112.5" y="473.2" transform="matrix(0.7071 -0.7071 0.7071 0.7071 -240.6208 366.4142)" class="st1" width="418.9" height="1"/>
		</g>
		<g>
			
				<rect x="66.3" y="473.2" transform="matrix(0.7071 -0.7071 0.7071 0.7071 -254.1515 333.7482)" class="st1" width="418.9" height="1"/>
		</g>
		<g>
			
				<rect x="20.1" y="473.2" transform="matrix(0.7071 -0.7071 0.7071 0.7071 -267.6824 301.0818)" class="st1" width="418.9" height="1"/>
		</g>
		<g>
			
				<rect x="285.8" y="473.2" transform="matrix(0.7071 -0.7071 0.7071 0.7071 -189.8803 488.9125)" class="st1" width="418.9" height="1"/>
		</g>
		<g>
			
				<rect x="239.6" y="473.2" transform="matrix(0.7071 -0.7071 0.7071 0.7071 -203.4112 456.2461)" class="st1" width="418.9" height="1"/>
		</g>
		<g>
			
				<rect x="193.4" y="473.2" transform="matrix(0.7071 -0.7071 0.7071 0.7071 -216.9419 423.5801)" class="st1" width="418.9" height="1"/>
		</g>
		<g>
			
				<rect x="77.9" y="473.2" transform="matrix(0.7071 -0.7071 0.7071 0.7071 -250.769 341.9144)" class="st1" width="418.9" height="1"/>
		</g>
		<g>
			
				<rect x="262.7" y="473.2" transform="matrix(0.7071 -0.7071 0.7071 0.7071 -196.6458 472.5793)" class="st1" width="418.9" height="1"/>
		</g>
		<g>
			
				<rect x="170.3" y="473.2" transform="matrix(0.7071 -0.7071 0.7071 0.7071 -223.7074 407.2469)" class="st1" width="418.9" height="1"/>
		</g>
		<g>
			
				<rect x="124.1" y="473.2" transform="matrix(0.7071 -0.7071 0.7071 0.7071 -237.2381 374.5808)" class="st1" width="418.9" height="1"/>
		</g>
		<g>
			
				<rect x="8.6" y="473.2" transform="matrix(0.7071 -0.7071 0.7071 0.7071 -271.0651 292.9152)" class="st1" width="418.9" height="1"/>
		</g>
		<g>
			
				<rect x="216.5" y="473.2" transform="matrix(0.7071 -0.7071 0.7071 0.7071 -210.1765 439.9133)" class="st1" width="418.9" height="1"/>
		</g>
		<g>
			
				<rect x="101" y="473.2" transform="matrix(0.7071 -0.7071 0.7071 0.7071 -244.0035 358.2476)" class="st1" width="418.9" height="1"/>
		</g>
		<g>
			
				<rect x="54.8" y="473.2" transform="matrix(0.7071 -0.7071 0.7071 0.7071 -257.5344 325.5812)" class="st1" width="418.9" height="1"/>
		</g>
		<g>
			
				<rect x="-14.5" y="473.2" transform="matrix(0.7071 -0.7071 0.7071 0.7071 -277.8304 276.5823)" class="st1" width="418.9" height="1"/>
		</g>
		<g>
			
				<rect x="147.2" y="473.2" transform="matrix(0.7071 -0.7071 0.7071 0.7071 -230.4727 390.914)" class="st1" width="418.9" height="1"/>
		</g>
		<g>
			
				<rect x="31.7" y="473.2" transform="matrix(0.7071 -0.7071 0.7071 0.7071 -264.2997 309.2484)" class="st1" width="418.9" height="1"/>
		</g>
		<g>
			
				<rect x="-2.9" y="473.2" transform="matrix(0.7071 -0.7071 0.7071 0.7071 -274.4478 284.7486)" class="st1" width="418.9" height="1"/>
		</g>
		<g>
			
				<rect x="-26" y="473.2" transform="matrix(0.7071 -0.7071 0.7071 0.7071 -281.2133 268.4154)" class="st1" width="418.9" height="1"/>
		</g>
	</g>
</g>
</svg>
